<svg width="18" height="30" viewBox="0 0 18 30" fill="none" xmlns="http://www.w3.org/2000/svg">
<path d="M8.97666 0C4.11086 0 0.152351 3.95851 0.152351 8.82431V21.1757C0.152351 26.0415 4.11086 30 8.97666 30C13.8425 30 17.801 26.0415 17.801 21.1757V8.82431C17.801 3.95851 13.8425 0 8.97666 0ZM16.001 21.1757C16.001 25.0488 12.8498 28.2001 8.97666 28.2001C5.10352 28.2001 1.95228 25.0488 1.95228 21.1757V8.82431C1.95228 4.95117 5.10352 1.79993 8.97666 1.79993C12.8498 1.79993 16.001 4.95117 16.001 8.82431V21.1757Z" fill="white"/>
<path d="M8.97688 5.9679C8.47975 5.9679 8.07692 6.37073 8.07692 6.86786V11.0102C8.07692 11.5071 8.47975 11.9101 8.97688 11.9101C9.47379 11.9101 9.87685 11.5071 9.87685 11.0102V6.86786C9.87685 6.37073 9.47401 5.9679 8.97688 5.9679Z" fill="white"/>
</svg>
