<svg width="19" height="25" fill="none" xmlns="http://www.w3.org/2000/svg"><path d="M9.483 0C4.43 0 .32 4.11.32 9.162c0 2.321 1.463 5.6 4.347 9.747a65.37 65.37 0 0 0 4.269 5.475l.547.616.546-.616a65.488 65.488 0 0 0 4.27-5.475c2.884-4.147 4.346-7.426 4.346-9.747C18.645 4.11 14.535 0 9.483 0Zm3.624 18.062a66.438 66.438 0 0 1-3.624 4.715 66.365 66.365 0 0 1-3.616-4.703c-2.672-3.842-4.085-6.923-4.085-8.912 0-4.246 3.455-7.7 7.7-7.7 4.247 0 7.701 3.454 7.701 7.7 0 1.986-1.41 5.064-4.076 8.9Z" fill="#C8A35F"/><path d="M9.483 3.386a5.414 5.414 0 0 0-5.408 5.408A5.414 5.414 0 0 0 9.483 14.2a5.414 5.414 0 0 0 5.407-5.407 5.414 5.414 0 0 0-5.407-5.408Zm0 9.354a3.95 3.95 0 0 1-3.946-3.946 3.95 3.95 0 0 1 3.946-3.946 3.95 3.95 0 0 1 3.946 3.946 3.95 3.95 0 0 1-3.946 3.946Z" fill="#C8A35F"/></svg>